/* XPM */
static char *brick_xpm[] = {
"16 16 3 1",
"R c #B22222",   /* rouge brique */
"B c #000000",   /* contour noir */
"X c #8B0000",   /* brique foncée pour relief */
"RRRRRRRRRRRRRRRR",
"RBBRRBBRRBBRRBBR",
"RRRRRRRRRRRRRRRR",
"RBBRRBBRRBBRRBBR",
"RRRRRRRRRRRRRRRR",
"RBBRRBBRRBBRRBBR",
"RRRRRRRRRRRRRRRR",
"RBBRRBBRRBBRRBBR",
"RRRRRRRRRRRRRRRR",
"RBBRRBBRRBBRRBBR",
"RRRRRRRRRRRRRRRR",
"RBBRRBBRRBBRRBBR",
"RRRRRRRRRRRRRRRR",
"RBBRRBBRRBBRRBBR",
"RRRRRRRRRRRRRRRR",
"RRRRRRRRRRRRRRRR"
};
