/* XPM */
static char *brick_xpm[] = {
"16 16 3 1",
"R c #e30808ff",   /* rouge brique */
"B c rgba(145, 177, 54, 1)",   /* contour noir */
"X c #8B0000",   /* brique foncée pour relief */
"RRRRRRRRRRRRRRRR",
"RBBRRBBRRBBRRBBR",
"RRRRRRRRRRRRRRRR",
"RBBRRBBRRBBRRBBR",
"RRRRRRRRRRRRRRRR",
"RBBRRBBRRBBRRBBR",
"RRRRRRRRRRRRRRRR",
"RBBRRBBRRBBRRBBR",
"RRRRRRRRRRRRRRRR",
"RBBRRBBRRBBRRBBR",
"RRRRRRRRRRRRRRRR",
"RBBRRBBRRBBRRBBR",
"RRRRRRRRRRRRRRRR",
"RBBRRBBRRBBRRBBR",
"RRRRRRRRRRRRRRRR",
"RRRRRRRRRRRRRRRR"
};
